<svg width="139" height="80" viewBox="0 0 139 80" fill="none" xmlns="http://www.w3.org/2000/svg">
<g filter="url(#filter0_d_14_2)">
<path d="M16.144 53.176C14.6507 53.176 13.072 52.9413 11.408 52.472C9.78667 52.0453 8.336 51.32 7.056 50.296C5.81867 49.272 4.98667 47.9067 4.56 46.2C4.51733 45.9867 4.47467 45.752 4.432 45.496C4.432 45.24 4.432 44.984 4.432 44.728C4.432 43.4053 4.73067 42.1253 5.328 40.888C5.92533 39.6507 6.65067 38.712 7.504 38.072H7.568C7.65333 38.072 7.76 38.1787 7.888 38.392C8.05867 38.5627 8.05867 38.6907 7.888 38.776C7.46133 39.2027 7.14133 39.6933 6.928 40.248C6.75733 40.76 6.672 41.3147 6.672 41.912C6.672 42.7227 6.8 43.5547 7.056 44.408C7.35467 45.2187 7.71733 45.9227 8.144 46.52C9.21067 48.0133 10.6827 49.208 12.56 50.104C14.48 50.9573 16.3573 51.384 18.192 51.384C20.7093 51.384 22.6507 50.6373 24.016 49.144C25.424 47.6507 26.128 45.816 26.128 43.64C26.128 42.3173 25.872 40.9947 25.36 39.672C24.6773 37.8373 23.76 36.0453 22.608 34.296C21.4987 32.504 20.4747 30.7547 19.536 29.048C18.7253 27.512 18.32 25.9547 18.32 24.376C18.32 22.712 18.832 21.112 19.856 19.576C20.88 18.2107 22.224 17.1227 23.888 16.312C25.5947 15.4587 27.3227 15.032 29.072 15.032C30.2667 15.032 31.4187 15.2453 32.528 15.672C33.6373 16.0987 34.64 16.8027 35.536 17.784C35.792 18.168 35.92 18.6587 35.92 19.256C35.92 20.1093 35.7493 20.7707 35.408 21.24C35.024 21.7947 34.5973 22.52 34.128 23.416C33.6587 24.312 33.3813 24.9307 33.296 25.272C33.2107 25.3147 32.9973 25.4 32.656 25.528C32.3573 25.6133 32.1653 25.592 32.08 25.464C32.2507 25.1227 32.4853 24.504 32.784 23.608C33.0827 22.712 33.232 21.9013 33.232 21.176C33.232 20.7067 33.2107 20.1947 33.168 19.64C33.168 19.0427 32.8907 18.5307 32.336 18.104C31.824 17.6347 31.1627 17.2293 30.352 16.888C29.5413 16.5467 28.56 16.376 27.408 16.376C25.0613 16.376 23.2693 17.0587 22.032 18.424C20.7947 19.7893 20.176 21.2827 20.176 22.904C20.176 23.7147 20.3467 24.5253 20.688 25.336C21.328 26.872 22.224 28.3227 23.376 29.688C24.528 31.0533 25.6587 32.4613 26.768 33.912C27.92 35.32 28.816 36.856 29.456 38.52C29.8827 39.6293 30.096 40.76 30.096 41.912C30.096 43.576 29.6693 45.0907 28.816 46.456C28.0053 47.8213 26.896 49.016 25.488 50.04C24.1227 51.0213 22.6293 51.7893 21.008 52.344C19.3867 52.8987 17.7653 53.176 16.144 53.176ZM46.363 26.552C45.7657 26.552 45.339 26.36 45.083 25.976C44.9123 25.7627 44.827 25.4853 44.827 25.144C44.827 24.4613 45.147 23.9067 45.787 23.48C46.2563 23.224 46.683 23.096 47.067 23.096C47.707 23.096 48.155 23.288 48.411 23.672C48.5817 23.8853 48.667 24.1627 48.667 24.504C48.667 25.1867 48.3257 25.7413 47.643 26.168C47.259 26.424 46.8323 26.552 46.363 26.552ZM35.227 51.192C34.8003 51.192 34.4377 51.1067 34.139 50.936C33.883 50.7653 33.755 50.4453 33.755 49.976C33.755 49.3787 33.9043 48.6747 34.203 47.864C34.5443 47.0533 34.907 46.2427 35.291 45.432C35.7177 44.6213 36.0377 43.96 36.251 43.448C36.5497 42.8507 36.9123 42.0827 37.339 41.144C37.8083 40.1627 38.235 39.2453 38.619 38.392C39.0457 37.496 39.3443 36.8773 39.515 36.536C38.9177 37.176 38.1923 37.9867 37.339 38.968C36.5283 39.9067 35.7603 40.824 35.035 41.72C34.3097 42.616 33.755 43.32 33.371 43.832C33.243 44.0027 33.1363 44.088 33.051 44.088C32.9657 44.088 32.923 43.9813 32.923 43.768C32.923 43.4267 33.0297 43.1067 33.243 42.808C34.0537 41.784 34.9497 40.632 35.931 39.352C36.955 38.072 37.8723 36.8987 38.683 35.832C39.4937 34.7227 40.0057 33.9973 40.219 33.656C40.6883 33.5707 41.371 33.4427 42.267 33.272C43.2057 33.1013 43.8457 32.8667 44.187 32.568C44.315 32.44 44.443 32.376 44.571 32.376C44.6563 32.376 44.699 32.4613 44.699 32.632C44.7417 32.76 44.699 32.9093 44.571 33.08C44.315 33.3787 43.867 34.104 43.227 35.256C42.587 36.408 41.9043 37.688 41.179 39.096C40.4963 40.4613 39.8563 41.6987 39.259 42.808C38.6617 43.96 38.1497 45.0693 37.723 46.136C37.2963 47.2027 37.083 47.9707 37.083 48.44C37.083 49.0373 37.3817 49.336 37.979 49.336C38.5337 49.336 39.2377 48.9947 40.091 48.312C40.987 47.6293 41.883 46.8187 42.779 45.88C43.675 44.8987 44.4643 44.0027 45.147 43.192C45.3603 42.936 45.6163 42.6373 45.915 42.296C46.2563 41.912 46.4697 41.6773 46.555 41.592C46.6403 41.6773 46.683 41.8267 46.683 42.04C46.6403 42.3387 46.5337 42.6373 46.363 42.936C46.1923 43.192 46.0217 43.4267 45.851 43.64C44.955 44.7493 43.9737 45.9013 42.907 47.096C41.8403 48.248 40.667 49.2293 39.387 50.04C38.107 50.808 36.7203 51.192 35.227 51.192ZM45.7475 51.96C45.5768 51.96 45.5768 51.768 45.7475 51.384C45.9608 51 46.1528 50.5733 46.3235 50.104C46.5368 49.6347 46.7502 49.1227 46.9635 48.568C47.3902 47.544 47.8595 46.392 48.3715 45.112C48.8835 43.832 49.3742 42.5947 49.8435 41.4C50.3128 40.1627 50.7182 39.1173 51.0595 38.264C51.4435 37.368 51.6995 36.792 51.8275 36.536C51.2302 37.176 50.5048 37.9867 49.6515 38.968C48.8408 39.9067 48.0728 40.824 47.3475 41.72C46.6222 42.616 46.0675 43.32 45.6835 43.832C45.5555 44.0027 45.4488 44.088 45.3635 44.088C45.2782 44.088 45.2355 43.9813 45.2355 43.768C45.2355 43.4267 45.3422 43.1067 45.5555 42.808C46.3662 41.784 47.2622 40.632 48.2435 39.352C49.2675 38.072 50.1848 36.8987 50.9955 35.832C51.8062 34.7227 52.3182 33.9973 52.5315 33.656C53.0008 33.5707 53.6835 33.4427 54.5795 33.272C55.5182 33.1013 56.1582 32.8667 56.4995 32.568C56.6275 32.44 56.7555 32.376 56.8835 32.376C56.9688 32.376 57.0115 32.4613 57.0115 32.632C57.0542 32.76 57.0115 32.9093 56.8835 33.08C56.6275 33.3787 56.1795 34.0827 55.5395 35.192C54.9422 36.2587 54.2808 37.4533 53.5555 38.776C52.8728 40.0987 52.2328 41.2933 51.6355 42.36C52.3182 41.5493 52.9795 40.7813 53.6195 40.056C54.3022 39.3307 54.7715 38.8187 55.0275 38.52C55.5395 38.008 56.2435 37.368 57.1395 36.6C58.0355 35.832 58.9742 35.128 59.9555 34.488C60.9368 33.848 61.7902 33.4853 62.5155 33.4C62.6862 33.3573 62.8355 33.336 62.9635 33.336C63.0915 33.336 63.2195 33.336 63.3475 33.336C64.1582 33.336 64.5635 33.6347 64.5635 34.232C64.5635 34.488 64.4995 34.7867 64.3715 35.128C64.2435 35.4693 64.0728 35.8107 63.8595 36.152C63.6035 36.664 63.1768 37.4747 62.5795 38.584C61.9822 39.6507 61.4488 40.632 60.9795 41.528L63.9875 38.52C64.4995 38.008 65.2035 37.368 66.0995 36.6C66.9955 35.832 67.9342 35.128 68.9155 34.488C69.8968 33.848 70.7502 33.4853 71.4755 33.4C71.6462 33.3573 71.7955 33.336 71.9235 33.336C72.0942 33.336 72.2222 33.336 72.3075 33.336C73.2462 33.336 73.7155 33.6773 73.7155 34.36C73.7155 34.872 73.4382 35.5547 72.8835 36.408C72.5848 36.8773 72.1155 37.6667 71.4755 38.776C70.8355 39.8853 70.1742 41.1013 69.4915 42.424C68.8515 43.704 68.2968 44.8987 67.8275 46.008C67.3582 47.1173 67.1235 47.928 67.1235 48.44C67.1235 49.0373 67.4222 49.336 68.0195 49.336C68.5742 49.336 69.2782 49.016 70.1315 48.376C71.0275 47.6933 71.9235 46.8827 72.8195 45.944C73.7582 45.0053 74.5688 44.1093 75.2515 43.256C75.5502 42.9147 75.8275 42.5733 76.0835 42.232C76.3822 41.848 76.5528 41.6347 76.5955 41.592C76.6808 41.6773 76.7235 41.8267 76.7235 42.04C76.7235 42.3387 76.6168 42.6373 76.4035 42.936C76.2328 43.192 76.0622 43.4267 75.8915 43.64C75.0808 44.7067 74.1422 45.816 73.0755 46.968C72.0515 48.12 70.9208 49.1013 69.6835 49.912C68.4462 50.68 67.1235 51.128 65.7155 51.256C65.2888 51.2987 64.8622 51.2133 64.4355 51C64.0088 50.7867 63.7955 50.4453 63.7955 49.976C63.7955 49.3787 63.9448 48.6747 64.2435 47.864C64.5848 47.0533 64.9475 46.2427 65.3315 45.432C65.7582 44.6213 66.0782 43.96 66.2915 43.448C67.0595 41.9547 67.7635 40.5467 68.4035 39.224C69.0435 37.9013 69.4915 36.9627 69.7475 36.408C69.8755 36.152 69.9395 35.9387 69.9395 35.768C69.9395 35.4693 69.7048 35.448 69.2355 35.704C68.7662 35.96 68.1902 36.344 67.5075 36.856C66.8675 37.368 66.2702 37.88 65.7155 38.392C65.1608 38.8613 64.7982 39.1813 64.6275 39.352C63.9022 40.0773 63.0275 41.0587 62.0035 42.296C61.0222 43.5333 60.1048 44.8347 59.2515 46.2C58.3982 47.5227 57.8008 48.76 57.4595 49.912C57.0328 50.296 56.6275 50.488 56.2435 50.488C55.9448 50.488 55.6888 50.3813 55.4755 50.168C55.3048 49.9547 55.2195 49.6987 55.2195 49.4C55.2195 48.5467 55.4755 47.544 55.9875 46.392C56.5422 45.1973 56.9902 44.216 57.3315 43.448C58.0995 41.9547 58.8035 40.5467 59.4435 39.224C60.0835 37.9013 60.5315 36.9627 60.7875 36.408C60.9155 36.152 60.9795 35.9387 60.9795 35.768C60.9795 35.4693 60.7448 35.448 60.2755 35.704C59.8062 35.96 59.2302 36.344 58.5475 36.856C57.9075 37.368 57.3102 37.88 56.7555 38.392C56.2008 38.8613 55.8382 39.1813 55.6675 39.352C54.6435 40.4187 53.6835 41.5067 52.7875 42.616C51.9342 43.7253 51.2088 44.92 50.6115 46.2C50.2702 46.968 49.9075 47.8213 49.5235 48.76C49.1395 49.6987 48.8195 50.488 48.5635 51.128C48.0088 51.1707 47.4542 51.32 46.8995 51.576C46.3448 51.832 45.9608 51.96 45.7475 51.96ZM75.81 51.896C75.6393 51.896 75.6393 51.7253 75.81 51.384C76.0233 51 76.2153 50.5733 76.386 50.104C76.5993 49.6347 76.8127 49.1227 77.026 48.568C77.4527 47.544 77.922 46.392 78.434 45.112C78.946 43.832 79.4367 42.5947 79.906 41.4C80.3753 40.1627 80.7807 39.1173 81.122 38.264C81.506 37.368 81.762 36.792 81.89 36.536C81.2927 37.176 80.5673 37.9867 79.714 38.968C78.9033 39.9067 78.1353 40.824 77.41 41.72C76.6847 42.616 76.13 43.32 75.746 43.832C75.618 44.0027 75.5113 44.088 75.426 44.088C75.3407 44.088 75.298 43.9813 75.298 43.768C75.298 43.4267 75.4047 43.1067 75.618 42.808C76.4287 41.784 77.3247 40.632 78.306 39.352C79.33 38.072 80.2473 36.8987 81.058 35.832C81.8687 34.7227 82.3807 33.9973 82.594 33.656C83.0633 33.5707 83.746 33.4427 84.642 33.272C85.5807 33.1013 86.2207 32.8667 86.562 32.568C86.69 32.44 86.818 32.376 86.946 32.376C87.0313 32.376 87.074 32.4613 87.074 32.632C87.1167 32.76 87.074 32.9093 86.946 33.08C86.69 33.336 86.306 33.8907 85.794 34.744C85.3247 35.5973 84.7913 36.5787 84.194 37.688C83.5967 38.7973 83.0207 39.864 82.466 40.888C82.8927 40.248 83.4473 39.5013 84.13 38.648C84.8553 37.752 85.6447 36.8987 86.498 36.088C87.3513 35.2347 88.2047 34.5307 89.058 33.976C89.954 33.4213 90.786 33.144 91.554 33.144C92.1087 33.144 92.578 33.272 92.962 33.528C93.346 33.7413 93.6447 34.1467 93.858 34.744C93.986 35.0427 94.05 35.384 94.05 35.768C94.05 36.4933 93.858 37.1973 93.474 37.88C93.1327 38.52 92.8767 39.0107 92.706 39.352C92.6633 39.48 92.514 39.608 92.258 39.736C92.002 39.8213 91.8953 39.7787 91.938 39.608C91.9807 39.3947 92.002 39.1813 92.002 38.968C92.0447 38.7547 92.066 38.52 92.066 38.264C92.066 37.5387 91.9167 36.8773 91.618 36.28C91.362 35.6827 90.8713 35.384 90.146 35.384C89.4633 35.384 88.6313 35.8107 87.65 36.664C86.6687 37.5173 85.6873 38.4987 84.706 39.608C83.4687 41.0587 82.4873 42.4453 81.762 43.768C81.0367 45.048 80.4393 46.3067 79.97 47.544C79.714 48.2267 79.458 48.9093 79.202 49.592C78.946 50.232 78.754 50.744 78.626 51.128C78.0713 51.1707 77.5167 51.2987 76.962 51.512C76.4073 51.768 76.0233 51.896 75.81 51.896ZM101.568 51.192C101.141 51.192 100.778 51.1067 100.48 50.936C100.181 50.7653 100.032 50.4453 100.032 49.976C100.032 49.3787 100.181 48.696 100.48 47.928C100.778 47.16 101.12 46.4133 101.504 45.688C101.888 44.92 102.229 44.3013 102.528 43.832C101.034 45.4107 99.4768 46.904 97.8555 48.312C97.0448 48.9947 96.1488 49.6347 95.1675 50.232C94.1862 50.8293 93.1408 51.128 92.0315 51.128C91.6048 51.128 91.3062 51 91.1355 50.744C90.9648 50.4453 90.8795 50.104 90.8795 49.72C90.8795 49.5067 90.9008 49.3573 90.9435 49.272C91.1568 47.608 91.6902 45.88 92.5435 44.088C93.3968 42.296 94.4422 40.6107 95.6795 39.032C96.9168 37.4533 98.1755 36.1733 99.4555 35.192C100.906 34.0827 102.506 33.528 104.256 33.528H111.616C111.829 33.528 111.936 33.6133 111.936 33.784C111.936 34.1253 111.744 34.296 111.36 34.296C110.933 34.296 110.506 34.5733 110.08 35.128C109.653 35.64 109.333 36.0667 109.12 36.408C108.821 36.8773 108.352 37.6667 107.712 38.776C107.072 39.8853 106.41 41.1013 105.728 42.424C105.088 43.704 104.533 44.8987 104.064 46.008C103.594 47.1173 103.36 47.928 103.36 48.44C103.36 49.0373 103.658 49.336 104.256 49.336C104.896 49.336 105.621 49.0373 106.432 48.44C107.242 47.8427 108.053 47.1173 108.864 46.264C109.717 45.368 110.485 44.4933 111.168 43.64C111.893 42.744 112.469 42.04 112.896 41.528C113.152 41.784 113.13 42.1467 112.832 42.616C112.576 43.0427 112.341 43.384 112.128 43.64C111.274 44.7493 110.293 45.9013 109.184 47.096C108.074 48.248 106.858 49.2293 105.536 50.04C104.256 50.808 102.933 51.192 101.568 51.192ZM94.6555 48.952C95.1675 48.952 95.8715 48.5893 96.7675 47.864C97.7062 47.096 98.7088 46.1573 99.7755 45.048C100.842 43.896 101.845 42.7013 102.784 41.464C103.722 40.184 104.49 39.032 105.088 38.008C105.728 36.9413 106.048 36.1307 106.048 35.576C106.048 35.1067 105.898 34.7867 105.6 34.616C105.344 34.4453 105.002 34.36 104.576 34.36C103.893 34.36 103.146 34.616 102.336 35.128C101.568 35.5973 100.949 36.0667 100.48 36.536C99.9675 37.0053 99.3488 37.752 98.6235 38.776C97.9408 39.7573 97.2582 40.8453 96.5755 42.04C95.8928 43.2347 95.3168 44.3867 94.8475 45.496C94.3782 46.6053 94.1435 47.5013 94.1435 48.184C94.1435 48.696 94.3142 48.952 94.6555 48.952ZM112.06 51.96C111.889 51.96 111.889 51.768 112.06 51.384C112.273 51 112.465 50.5733 112.636 50.104C112.849 49.6347 113.063 49.1227 113.276 48.568C113.703 47.544 114.172 46.392 114.684 45.112C115.196 43.832 115.687 42.5947 116.156 41.4C116.625 40.1627 117.031 39.1173 117.372 38.264C117.756 37.368 118.012 36.792 118.14 36.536C117.543 37.176 116.817 37.9867 115.964 38.968C115.153 39.9067 114.385 40.824 113.66 41.72C112.935 42.616 112.38 43.32 111.996 43.832C111.868 44.0027 111.761 44.088 111.676 44.088C111.591 44.088 111.548 43.9813 111.548 43.768C111.548 43.4267 111.655 43.1067 111.868 42.808C112.679 41.784 113.575 40.632 114.556 39.352C115.58 38.072 116.497 36.8987 117.308 35.832C118.119 34.7227 118.631 33.9973 118.844 33.656C119.313 33.5707 119.996 33.4427 120.892 33.272C121.831 33.1013 122.471 32.8667 122.812 32.568C122.94 32.44 123.068 32.376 123.196 32.376C123.281 32.376 123.324 32.4613 123.324 32.632C123.367 32.76 123.324 32.9093 123.196 33.08C122.94 33.3787 122.492 34.0827 121.852 35.192C121.255 36.2587 120.593 37.4533 119.868 38.776C119.185 40.0987 118.545 41.2933 117.948 42.36C118.46 41.6773 119.015 41.016 119.612 40.376C120.209 39.736 120.785 39.1173 121.34 38.52C121.852 38.008 122.556 37.368 123.452 36.6C124.348 35.832 125.287 35.128 126.268 34.488C127.249 33.848 128.103 33.4853 128.828 33.4C128.999 33.3573 129.148 33.336 129.276 33.336C129.447 33.336 129.575 33.336 129.66 33.336C130.599 33.336 131.068 33.6773 131.068 34.36C131.068 34.872 130.791 35.5547 130.236 36.408C129.937 36.8773 129.468 37.6667 128.828 38.776C128.231 39.8427 127.612 41.016 126.972 42.296C126.375 43.5333 125.841 44.7067 125.372 45.816C124.945 46.8827 124.732 47.672 124.732 48.184C124.732 48.7813 125.031 49.08 125.628 49.08C126.353 49.08 127.143 48.7173 127.996 47.992C128.892 47.2667 129.852 46.3493 130.876 45.24C131.9 44.088 132.924 42.872 133.948 41.592C134.033 41.6773 134.076 41.8267 134.076 42.04C134.076 42.3387 133.969 42.6373 133.756 42.936C133.585 43.192 133.415 43.4267 133.244 43.64C132.817 44.1947 132.241 44.8987 131.516 45.752C130.833 46.5627 130.129 47.3733 129.404 48.184C128.679 48.952 128.017 49.5707 127.42 50.04C126.993 50.3387 126.439 50.6587 125.756 51C125.073 51.3413 124.391 51.512 123.708 51.512C122.94 51.512 122.407 51.32 122.108 50.936C121.809 50.5093 121.66 49.9973 121.66 49.4C121.66 48.7173 121.788 47.992 122.044 47.224C122.3 46.456 122.577 45.7307 122.876 45.048C123.217 44.3227 123.473 43.7893 123.644 43.448C124.412 41.9547 125.116 40.5467 125.756 39.224C126.396 37.9013 126.844 36.9627 127.1 36.408C127.228 36.152 127.292 35.9387 127.292 35.768C127.292 35.4693 127.057 35.448 126.588 35.704C126.119 35.96 125.543 36.344 124.86 36.856C124.22 37.368 123.623 37.88 123.068 38.392C122.513 38.8613 122.151 39.1813 121.98 39.352C120.401 41.016 119.015 42.872 117.82 44.92C116.668 46.9253 115.687 48.9947 114.876 51.128C114.321 51.1707 113.767 51.32 113.212 51.576C112.657 51.832 112.273 51.96 112.06 51.96Z" fill="white"/>
</g>
<circle cx="46.5" cy="24.5" r="4.5" fill="#DA7C25" fill-opacity="0.8"/>
<circle cx="48.5" cy="25.5" r="4.5" fill="#B923E1" fill-opacity="0.8"/>
<defs>
<filter id="filter0_d_14_2" x="0.432007" y="15.032" width="137.644" height="46.144" filterUnits="userSpaceOnUse" color-interpolation-filters="sRGB">
<feFlood flood-opacity="0" result="BackgroundImageFix"/>
<feColorMatrix in="SourceAlpha" type="matrix" values="0 0 0 0 0 0 0 0 0 0 0 0 0 0 0 0 0 0 127 0" result="hardAlpha"/>
<feOffset dy="4"/>
<feGaussianBlur stdDeviation="2"/>
<feComposite in2="hardAlpha" operator="out"/>
<feColorMatrix type="matrix" values="0 0 0 0 0 0 0 0 0 0 0 0 0 0 0 0 0 0 0.25 0"/>
<feBlend mode="normal" in2="BackgroundImageFix" result="effect1_dropShadow_14_2"/>
<feBlend mode="normal" in="SourceGraphic" in2="effect1_dropShadow_14_2" result="shape"/>
</filter>
</defs>
</svg>
